<?xml version="1.0" encoding="utf-8"?>
<!-- Generator: Adobe Illustrator 17.0.1, SVG Export Plug-In . SVG Version: 6.00 Build 0)  -->
<!DOCTYPE svg PUBLIC "-//W3C//DTD SVG 1.1//EN" "http://www.w3.org/Graphics/SVG/1.1/DTD/svg11.dtd">
<svg version="1.1" id="Ebene_1" xmlns="http://www.w3.org/2000/svg" xmlns:xlink="http://www.w3.org/1999/xlink" x="0px" y="0px"
	 width="512px" height="512px" viewBox="0 0 512 512" enable-background="new 0 0 512 512" xml:space="preserve">
<path id="email-10-icon" fill="#322D28" d="M213.419,235.356l-61.479-47.225v108.702L213.419,235.356z M361.514,166.178h-208.85
	l104.342,80.152L361.514,166.178z M286.252,246.396l-29.255,22.437l-29.303-22.508l-75.498,75.498H361.68L286.252,246.396z
	 M300.538,235.438l61.522,61.522V188.254L300.538,235.438z"/>
<path fill="#322D28" d="M255,451.5c-113.864,0-206.5-92.636-206.5-206.5S141.136,38.5,255,38.5S461.5,131.136,461.5,245
	S368.864,451.5,255,451.5z M255,54.5C149.958,54.5,64.5,139.958,64.5,245S149.958,435.5,255,435.5S445.5,350.042,445.5,245
	S360.042,54.5,255,54.5z"/>
</svg>
